<?xml version="1.0" encoding="utf-8"?>
<!-- Generator: Adobe Illustrator 24.1.1, SVG Export Plug-In . SVG Version: 6.00 Build 0)  -->
<svg version="1.1" id="Layer_1" xmlns="http://www.w3.org/2000/svg" xmlns:xlink="http://www.w3.org/1999/xlink" x="0px" y="0px"
	 viewBox="0 0 1500 350" style="enable-background:new 0 0 1500 350;" xml:space="preserve">
<style type="text/css">
	.st0{fill:#F5333F;}
	.st1{fill:#BDBEC0;stroke:#BDBEC0;stroke-width:2;stroke-miterlimit:10;}
	.st2{fill:#EF3741;}
	.st3{fill:#333132;}
</style>
<g>
	<path class="st0" d="M200.62,75.14c0-10.71-8.71-19.41-19.41-19.41c-10.71,0-19.41,8.7-19.41,19.41c0,10.71,8.7,19.42,19.41,19.42
		C191.91,94.56,200.62,85.85,200.62,75.14"/>
	<path class="st0" d="M117.97,242.94c-10.71,0-19.42,8.71-19.42,19.42c0,10.7,8.71,19.4,19.42,19.4c10.7,0,19.41-8.7,19.41-19.4
		C137.38,251.65,128.67,242.94,117.97,242.94"/>
	<path class="st0" d="M181.21,133.42c-14.66,0-26.53,11.89-26.53,26.55c0,14.65,11.88,26.53,26.53,26.53
		c14.66,0,26.53-11.89,26.53-26.53C207.75,145.31,195.87,133.42,181.21,133.42"/>
	<path class="st0" d="M244.46,242.94c-10.7,0-19.41,8.71-19.41,19.42c0,10.7,8.7,19.4,19.41,19.4c10.7,0,19.41-8.7,19.41-19.4
		C263.87,251.65,255.15,242.94,244.46,242.94"/>
	<path class="st0" d="M244.46,291.08c-15.84,0-28.73-12.89-28.73-28.73c0-8.77,3.97-16.63,10.19-21.9l-27.41-45.78
		c-5.21,2.6-11.06,4.1-17.29,4.1c-6.23,0-12.08-1.5-17.3-4.1l-27.41,45.78c6.23,5.27,10.18,13.13,10.18,21.9
		c0,15.84-12.88,28.73-28.72,28.73s-28.73-12.89-28.73-28.73s12.89-28.73,28.73-28.73c3.72,0,7.28,0.74,10.55,2.04l27.6-46.11
		c-8.39-7.12-13.72-17.72-13.72-29.58c0-19.86,14.92-36.21,34.16-38.51v-18c-13.63-2.23-24.07-14.06-24.07-28.31
		c0-15.84,12.89-28.73,28.73-28.73s28.72,12.89,28.72,28.73c0,14.25-10.44,26.08-24.06,28.31v18c19.25,2.31,34.16,18.65,34.16,38.51
		c0,11.87-5.34,22.47-13.73,29.58l27.61,46.11c3.27-1.3,6.83-2.04,10.55-2.04c15.84,0,28.72,12.89,28.72,28.73
		S260.3,291.08,244.46,291.08 M58.18,160.12c0-20.73,13-38.01,34.75-38.01c15.85,0,29.16,8.45,31.09,24.8h-12.4
		c-1.21-9.54-9.54-14.43-18.69-14.43c-15.56,0-22.05,13.71-22.05,27.64s6.49,27.64,22.05,27.64c13,0.21,20.11-7.62,20.32-19.91
		h-19.3v-9.66h30.89v38.21h-8.13l-1.93-8.53c-6.81,7.72-13,10.26-21.84,10.26C71.18,198.13,58.18,180.85,58.18,160.12 M179.98,4.71
		c-93.56,0-169.42,75.85-169.42,169.43c0,93.56,75.86,169.42,169.42,169.42c93.57,0,169.42-75.86,169.42-169.42
		C349.4,80.56,273.56,4.71,179.98,4.71"/>
</g>
<polyline class="st1" points="461.97,6.09 461.97,345.02 460.12,345.02 460.12,6.09 "/>
<g>
	<polygon class="st2" points="631.55,198.73 575.54,198.73 575.54,150.72 631.55,150.72 631.54,150.69 631.54,94.67 679.55,94.67 
		679.55,150.69 679.54,150.71 735.55,150.71 735.55,198.72 679.54,198.72 679.55,198.71 679.55,254.71 631.54,254.71 631.54,198.71 
			"/>
	<path class="st2" d="M809.82,173.84c0-37.3,30.24-67.54,67.54-67.54c8.31,0,16.26,1.5,23.6,4.25
		c-13.82-10.94-31.27-17.47-50.25-17.47c-44.76,0-81.04,36.29-81.04,81.05s36.28,81.04,81.04,81.04c19.62,0,37.61-6.98,51.63-18.57
		c-7.73,3.07-16.16,4.77-24.98,4.77C840.06,241.38,809.82,211.14,809.82,173.84"/>
	<path class="st3" d="M1424.63,255.21c13.59,0,25.9-2.39,36.95-7.17c11.05-4.78,20.3-11.72,27.77-20.83l-23.29-21.5
		c-10.6,12.4-23.74,18.59-39.42,18.59c-9.71,0-18.37-2.12-25.98-6.38c-7.62-4.26-13.56-10.19-17.8-17.8
		c-4.26-7.62-6.39-16.28-6.39-25.98c0-9.71,2.13-18.37,6.39-25.98c4.25-7.61,10.19-13.55,17.8-17.8c7.61-4.26,16.27-6.38,25.98-6.38
		c15.67,0,28.81,6.12,39.42,18.37l23.29-21.5c-7.47-8.96-16.68-15.82-27.66-20.6c-10.97-4.78-23.25-7.17-36.84-7.17
		c-16.13,0-30.65,3.47-43.56,10.41c-12.92,6.94-23.07,16.58-30.46,28.89c-7.39,12.32-11.08,26.25-11.08,41.77s3.7,29.45,11.08,41.77
		c7.39,12.32,17.54,21.95,30.46,28.89C1394.21,251.74,1408.65,255.21,1424.63,255.21 M1279.73,152.63c0,8.67-2.84,15.38-8.51,20.16
		c-5.68,4.78-13.96,7.17-24.86,7.17h-29.56v-54.65h29.56c10.9,0,19.19,2.35,24.86,7.05
		C1276.89,137.07,1279.73,143.82,1279.73,152.63 M1319.37,252.52l-35.16-50.39c10.3-4.48,18.25-10.94,23.85-19.37
		c5.6-8.44,8.4-18.48,8.4-30.12c0-11.64-2.76-21.72-8.28-30.23c-5.53-8.51-13.41-15.08-23.63-19.71
		c-10.23-4.63-22.28-6.94-36.17-6.94h-67.86v156.78h36.28v-43.67h31.58h1.79l30.23,43.67H1319.37z M1149.16,124.86V95.75h-118.48
		v156.78h36.28v-57.11h72.56v-29.11h-72.56v-41.43H1149.16z M957.23,252.52h36.28V95.75h-36.28V252.52z"/>
</g>
</svg>
